<?xml version="1.0" encoding="utf-8"?>
<!-- Generator: Adobe Illustrator 24.0.0, SVG Export Plug-In . SVG Version: 6.00 Build 0)  -->
<svg version="1.1" id="图层_1" xmlns="http://www.w3.org/2000/svg" xmlns:xlink="http://www.w3.org/1999/xlink" x="0px" y="0px"
	 viewBox="-1200 0 3450 1050" enable-background="new -1200 0 3450 1050" xml:space="preserve">
<g id="ggg">
	<g id="mb" opacity="1">
		<g id="mlogo_3_">
			<g id="l4">

					<line fill="none" stroke="#000000" stroke-width="90" stroke-linecap="round" stroke-linejoin="round" stroke-miterlimit="10" x1="827.69324" y1="420.99396" x2="827.69312" y2="696.41479"
						stroke-dasharray="240,500" stroke-dashoffset="240">
						<animate values="240; 0" attributeName="stroke-dashoffset" begin="4.9s" dur="1s" fill="freeze" calcMode="spline" keySplines="0.1 0.5 0.2 1">
					  </animate>
					</line>
			</g>
			<g id="m4mb">
				<path fill-rule="evenodd" clip-rule="evenodd" fill="#FFFFFF" d="M1006.5461,129.64c-19.8701-37.156-49.03-66.316-86.186-86.186
					C883.204,23.5819,846.35,13,744.716,13H533.298H305.282c-101.6319,0-138.488,10.582-175.644,30.454
					c-37.1539,19.87-66.314,49.03-86.1859,86.186c-19.8701,37.154-30.4521,74.01-30.4521,175.644V744.718
					c0,101.632,10.582,138.486,30.4521,175.642c19.8719,37.156,49.032,66.314,86.1859,86.186
					c37.156,19.87,74.0121,30.454,175.644,30.454h439.434c101.634,0,138.488-10.584,175.644-30.454
					c37.156-19.872,66.3159-49.03,86.186-86.186c19.8698-37.156,30.4538-74.01,30.4538-175.642V305.284
					C1036.9999,203.65,1026.4159,166.794,1006.5461,129.64z M853.1274,688.1508c-15.166,11.0188-35.7024,11.0188-50.8684,0
					s-21.5122-30.55-15.7192-48.3787l41.1536-126.6571l41.1533,126.6571C874.6396,657.6008,868.2934,677.132,853.1274,688.1508z"/>
			</g>
			<g id="l3">

					<path fill="none" stroke="#7F7F7F" stroke-width="90" stroke-linecap="round" stroke-linejoin="round" stroke-miterlimit="10" d="
					M783.48767,377.06424c-9.60669-29.56644-37.15912-49.58441-68.24713-49.58441c-31.08795,0-58.64038,20.01797-68.24707,49.58441
					L543.39911,691.6814"
						stroke-dasharray="400,500" stroke-dashoffset="400">
						<animate values="-400; -50" attributeName="stroke-dashoffset" begin="4.6s" dur="1.5s" fill="freeze" calcMode="spline" keySplines="0.1 0.5 0.2 1">
					  </animate>
					</path>
			</g>
			<g id="m3mb">
				<path fill-rule="evenodd" clip-rule="evenodd" fill="#FFFFFF" d="M1006.5461,129.64c-19.8701-37.156-49.03-66.316-86.186-86.186
					C883.204,23.5819,846.35,13,744.716,13H533.298H305.282c-101.6319,0-138.488,10.582-175.644,30.454
					c-37.1539,19.87-66.314,49.03-86.1859,86.186c-19.8701,37.154-30.4521,74.01-30.4521,175.644V744.718
					c0,101.632,10.582,138.486,30.4521,175.642c19.8719,37.156,49.032,66.314,86.1859,86.186
					c37.156,19.87,74.0121,30.454,175.644,30.454h439.434c101.634,0,138.488-10.584,175.644-30.454
					c37.156-19.872,66.3159-49.03,86.186-86.186c19.8698-37.156,30.4538-74.01,30.4538-175.642V305.284
					C1036.9999,203.65,1026.4159,166.794,1006.5461,129.64z M737.9897,344.008c-20.7253,0-39.0938,13.3453-45.4983,33.0563
					l-68.1978,209.8911c-6.4043,19.711-24.7725,33.0563-45.498,33.0563c-20.7251,0-39.0935-13.3453-45.498-33.0563l68.1978-209.8911
					c12.8091-39.4219,49.5457-66.1125,90.9961-66.1125c40.803,0,77.0208,25.8725,90.3611,64.2835
					C775.9328,356.5323,758.0673,344.008,737.9897,344.008z M853.1274,688.1508c-15.166,11.0188-35.7024,11.0188-50.8684,0
					s-21.5122-30.55-15.7192-48.3787l41.1536-126.6571l41.1533,126.6571C874.6396,657.6008,868.2934,677.132,853.1274,688.1508z"/>
			</g>
			<g id="l2">

					<path fill="none" stroke="#000000" stroke-width="90" stroke-linecap="round" stroke-linejoin="round" stroke-miterlimit="10" d="
					M264.48352,434.38412l18.62408-57.31989c9.60672-29.56644,37.15912-49.58441,68.2471-49.58441
					s58.64041,20.01797,68.24713,49.58441l68.19772,209.89108c9.60669,29.56641,37.15912,49.58441,68.24707,49.58441
					c31.08801,0,58.64044-20.01801,68.24713-49.58441"
						stroke-dasharray="600,800" stroke-dashoffset="600">
						<animate values="600; 0" attributeName="stroke-dashoffset" begin="4.3s" dur="2s" fill="freeze" calcMode="spline" keySplines="0.1 0.5 0.2 1">
					  </animate>
					</path>
			</g>
			<g id="meng2" opacity="0">
				<animate values="0; 1" attributeName="opacity" begin="4.8s" dur="0.00001s" fill="freeze">
				</animate>
				<path id="m3_2_" fill="#7F7F7F" d="M553.4281,525l-20.1305,61.9553c6.4045,19.7109,24.7728,33.0563,45.4981,33.0563
					c20.7253,0,39.0936-13.3453,45.498-33.0563L644.4243,525H553.4281z"/>
			</g>
			<g id="m2mb_1_">
				<path id="m2mb" fill-rule="evenodd" clip-rule="evenodd" fill="#FFFFFF" d="M744.716,13C846.35,13,883.204,23.582,920.36,43.454
					c37.156,19.87,66.316,49.03,86.186,86.186c19.87,37.154,30.454,74.01,30.454,175.644v439.434
					c0,101.632-10.584,138.486-30.454,175.642s-49.03,66.314-86.186,86.186c-37.156,19.87-74.01,30.454-175.644,30.454H305.282
					c-101.632,0-138.488-10.584-175.644-30.454c-37.154-19.872-66.314-49.03-86.186-86.186C23.582,883.204,13,846.35,13,744.718
					V305.284c0-101.634,10.582-138.49,30.452-175.644c19.872-37.156,49.032-66.316,86.186-86.186
					C166.794,23.582,203.65,13,305.282,13h228.0161H744.716z M868.8466,639.772l-41.1533-126.6571L786.5397,639.772
					c-5.793,17.8287,0.5532,37.3599,15.7192,48.3787s35.7024,11.0188,50.8684,0S874.6396,657.6008,868.8466,639.772z
					 M782.8525,375.2352c-6.9197-18.7029-24.7852-31.2272-44.8628-31.2272c-20.7253,0-39.0938,13.3453-45.4983,33.0563
					l-68.1978,209.8911c-12.8088,39.4219-49.5454,66.1125-90.9961,66.1125s-78.187-26.6907-90.9961-66.1125l-68.1978-209.8911
					c-6.4044-19.7109-24.7727-33.0563-45.498-33.0563s-39.0935,13.3453-45.498,33.0563
					c12.809-39.4219,49.5455-66.1125,90.9961-66.1125c41.4507,0,78.1873,26.6906,90.9961,66.1125l68.1978,209.8911l68.1978-209.8911
					c12.8091-39.4219,49.5457-66.1125,90.9961-66.1125C733.2944,310.9517,769.5121,336.8242,782.8525,375.2352z"/>
			</g>
			<g id="l1">

					<line fill="none" stroke="#7F7F7F" stroke-width="90" stroke-linecap="round" stroke-linejoin="round" stroke-miterlimit="10" x1="203.2718" y1="762.80206" x2="338.9751" y2="345.15155"
						stroke-dasharray="410,500" stroke-dashoffset="410">
						<animate values="410; 0" attributeName="stroke-dashoffset" begin="4s" dur="1.5s" fill="freeze" calcMode="spline" keySplines="0.1 0.5 0.2 1">
					  </animate>
					</line>
			</g>
			<g id="meng1" opacity="0">
				<animate values="0; 1" attributeName="opacity" begin="4.5s" dur="0.00001s" fill="freeze">
				</animate>
				<path id="m2_2_" fill="#000000" d="M424.8268,325.5027c-14.8595-9.2939-32.327-14.551-50.7231-14.551
					c-41.4507,0-78.1872,26.6906-90.9962,66.1125c6.4045-19.7109,24.7727-33.0563,45.4981-33.0563
					c20.7253,0,39.0936,13.3453,45.4981,33.0563l12.6013,38.7828L424.8268,325.5027z"/>
			</g>
			<g id="m1mb">
				<path fill="#FFFFFF" d="M1006.5461,129.64c-19.8701-37.156-49.03-66.316-86.186-86.186C883.204,23.5819,846.35,13,744.716,13
					H533.298H305.282c-101.6319,0-138.488,10.582-175.644,30.454c-37.1539,19.87-66.314,49.03-86.1859,86.186
					c-19.8701,37.154-30.4521,74.01-30.4521,175.644V744.718c0,101.632,10.582,138.486,30.4521,175.642
					c19.8719,37.156,49.032,66.314,86.1859,86.186c37.156,19.87,74.0121,30.454,175.644,30.454h439.434
					c101.634,0,138.488-10.584,175.644-30.454c37.156-19.872,66.3159-49.03,86.186-86.186
					c19.8698-37.156,30.4538-74.01,30.4538-175.642V305.284C1036.9999,203.65,1026.4159,166.794,1006.5461,129.64z
					 M737.9897,344.008c-20.7253,0-39.0938,13.3453-45.4983,33.0563l-68.1978,209.8911
					c-12.8088,39.4219-49.5454,66.1125-90.9961,66.1125s-78.187-26.6907-90.9961-66.1125l-68.1975-209.8906L270.3405,696.4149
					h-90.9961l103.7632-319.3506c12.809-39.4219,49.5455-66.1125,90.9961-66.1125c41.4507,0,78.1873,26.6906,90.9961,66.1125
					l68.1978,209.8911l68.1978-209.8911c12.8091-39.4219,49.5457-66.1125,90.9961-66.1125c40.803,0,77.0208,25.8725,90.3611,64.2835
					C775.9328,356.5323,758.0673,344.008,737.9897,344.008z M853.1274,688.1508c-15.166,11.0188-35.7024,11.0188-50.8684,0
					s-21.5122-30.55-15.7192-48.3787l41.1536-126.6571l41.1533,126.6571C874.6396,657.6008,868.2934,677.132,853.1274,688.1508z"/>
			</g>
		</g>
	</g>
	<g opacity="1">
		<g id="xian" opacity="1">
			<animate values="1; 0" attributeName="opacity" begin="4.5s" dur="1s" fill="freeze">
			</animate>
			<g id="xian66">

					<path opacity="0" fill="none" stroke="#000000" stroke-width="4" stroke-linecap="round" stroke-linejoin="round" stroke-miterlimit="10" d="
					M900.1802,1016.2641L574.1999,13" stroke-dasharray="1080,1080" stroke-dashoffset="1080">
						<animate values="-1080; 0" attributeName="stroke-dashoffset" begin="1.3s" dur="1s" fill="freeze" calcMode="spline" keySplines="0.8 0 0.2 1">
					  </animate>
						<animate values="1; 0.12" attributeName="opacity" begin="1.3s" dur="1s" fill="freeze">
					  </animate>
				  </path>

					<path opacity="0" fill="none" stroke="#000000" stroke-width="4" stroke-linecap="round" stroke-linejoin="round" stroke-miterlimit="10" d="
					M974.5673,965.1467L665.196,13" stroke-dasharray="1080,1080" stroke-dashoffset="1080">
						<animate values="-1080; 0" attributeName="stroke-dashoffset" begin="1.4s" dur="1s" fill="freeze" calcMode="spline" keySplines="0.8 0 0.2 1">
					  </animate>
						<animate values="1; 0.12" attributeName="opacity" begin="1.4s" dur="1s" fill="freeze">
					  </animate>
				  </path>

					<path opacity="0" fill="none" stroke="#000000" stroke-width="4" stroke-linecap="round" stroke-linejoin="round" stroke-miterlimit="10" d="
					M938.9032,995.4128L619.8719,13.5354" stroke-dasharray="1080,1080" stroke-dashoffset="1080">
						<animate values="-1080; 0" attributeName="stroke-dashoffset" begin="1.5s" dur="1s" fill="freeze" calcMode="spline" keySplines="0.8 0 0.2 1">
					  </animate>
						<animate values="1; 0.12" attributeName="opacity" begin="1.5s" dur="1s" fill="freeze">
					  </animate>
				  </path>

					<path opacity="0" fill="none" stroke="#000000" stroke-width="4" stroke-linecap="round" stroke-linejoin="round" stroke-miterlimit="10" d="
					M679.526,1037L346.9822,13.5354" stroke-dasharray="1080,1080" stroke-dashoffset="1080">
						<animate values="-1080; 0" attributeName="stroke-dashoffset" begin="1.6s" dur="1s" fill="freeze" calcMode="spline" keySplines="0.8 0 0.2 1">
					  </animate>
						<animate values="1; 0.12" attributeName="opacity" begin="1.6s" dur="1s" fill="freeze">
					  </animate>
				  </path>

					<path opacity="0" fill="none" stroke="#000000" stroke-width="4" stroke-linecap="round" stroke-linejoin="round" stroke-miterlimit="10" d="
					M588.5298,1037L255.8121,13" stroke-dasharray="1080,1080" stroke-dashoffset="1080">
						<animate values="-1080; 0" attributeName="stroke-dashoffset" begin="1.7s" dur="1s" fill="freeze" calcMode="spline" keySplines="0.8 0 0.2 1">
					  </animate>
						<animate values="1; 0.12" attributeName="opacity" begin="1.7s" dur="1s" fill="freeze">
					  </animate>
				  </path>
			</g>
			<g id="xian55">

					<path opacity="0" fill="none" stroke="#000000" stroke-width="4" stroke-linecap="round" stroke-linejoin="round" stroke-miterlimit="10" d="
					M13,289.301l1024,332.7178" stroke-dasharray="1080,1080" stroke-dashoffset="1080">
						<animate values="1080; 0" attributeName="stroke-dashoffset" begin="2.4s" dur="1s" fill="freeze" calcMode="spline" keySplines="0.8 0 0.2 1">
					  </animate>
						<animate values="1; 0.12" attributeName="opacity" begin="2.4s" dur="1s" fill="freeze">
					  </animate>
				  </path>

					<path opacity="0" fill="none" stroke="#000000" stroke-width="4" stroke-linecap="round" stroke-linejoin="round" stroke-miterlimit="10" d="
					M13,388.3339l1024,332.7177" stroke-dasharray="1080,1080" stroke-dashoffset="1080">
						<animate values="1080; 0" attributeName="stroke-dashoffset" begin="2.5s" dur="1s" fill="freeze" calcMode="spline" keySplines="0.8 0 0.2 1">
					  </animate>
						<animate values="1; 0.12" attributeName="opacity" begin="2.5s" dur="1s" fill="freeze">
					  </animate>
				  </path>

					<path opacity="0" fill="none" stroke="#000000" stroke-width="4" stroke-linecap="round" stroke-linejoin="round" stroke-miterlimit="10" d="
					M29.206,161.5497L1037,489.0018" stroke-dasharray="1080,1080" stroke-dashoffset="1080">
						<animate values="1080; 0" attributeName="stroke-dashoffset" begin="2.6s" dur="1s" fill="freeze" calcMode="spline" keySplines="0.8 0 0.2 1">
					  </animate>
						<animate values="1; 0.12" attributeName="opacity" begin="2.6s" dur="1s" fill="freeze">
					  </animate>
				  </path>

					<path opacity="0" fill="none" stroke="#000000" stroke-width="4" stroke-linecap="round" stroke-linejoin="round" stroke-miterlimit="10" d="
					M21.7059,188.6792L1037,518.5683" stroke-dasharray="1080,1080" stroke-dashoffset="1080">
						<animate values="1080; 0" attributeName="stroke-dashoffset" begin="2.7s" dur="1s" fill="freeze" calcMode="spline" keySplines="0.8 0 0.2 1">
					  </animate>
						<animate values="1; 0.12" attributeName="opacity" begin="2.7s" dur="1s" fill="freeze">
					  </animate>
				  </path>
			</g>
			<g id="xian44">

					<path opacity="0" fill="none" stroke="#000000" stroke-width="4" stroke-linecap="round" stroke-linejoin="round" stroke-miterlimit="10" d="
					M13,653.1436h1024" stroke-dasharray="1024,1024" stroke-dashoffset="1024">
						<animate values="1024; 0" attributeName="stroke-dashoffset" begin="2.8s" dur="1s" fill="freeze" calcMode="spline" keySplines="0.8 0 0.2 1">
					  </animate>
						<animate values="1; 0.12" attributeName="opacity" begin="2.8s" dur="1s" fill="freeze">
					  </animate>
				  </path>

					<path opacity="0" fill="none" stroke="#000000" stroke-width="4" stroke-linecap="round" stroke-linejoin="round" stroke-miterlimit="10" d="
					M13,310.9517h1024" stroke-dasharray="1024,1024" stroke-dashoffset="1024">
						<animate values="1024; 0" attributeName="stroke-dashoffset" begin="2.9s" dur="1s" fill="freeze" calcMode="spline" keySplines="0.8 0 0.2 1">
					  </animate>
						<animate values="1; 0.12" attributeName="opacity" begin="2.9s" dur="1s" fill="freeze">
					  </animate>
				  </path>

					<path opacity="0" fill="none" stroke="#000000" stroke-width="4" stroke-linecap="round" stroke-linejoin="round" stroke-miterlimit="10" d="
					M13,696.4148h1024" stroke-dasharray="1024,1024" stroke-dashoffset="1024">
						<animate values="1024; 0" attributeName="stroke-dashoffset" begin="3.0s" dur="1s" fill="freeze" calcMode="spline" keySplines="0.8 0 0.2 1">
					  </animate>
						<animate values="1; 0.12" attributeName="opacity" begin="3.0s" dur="1s" fill="freeze">
					  </animate>
				  </path>
			</g>
			<g id="xian33">

					<path opacity="0" fill="none" stroke="#000000" stroke-width="4" stroke-linecap="round" stroke-linejoin="round" stroke-miterlimit="10" d="
					M13,494.394l1009.4271-327.9827" stroke-dasharray="1080,1080" stroke-dashoffset="1080">
						<animate values="-1080; 0" attributeName="stroke-dashoffset" begin="1.8s" dur="1s" fill="freeze" calcMode="spline" keySplines="0.8 0 0.2 1">
					  </animate>
						<animate values="1; 0.12" attributeName="opacity" begin="1.8s" dur="1s" fill="freeze">
					  </animate>
				  </path>

					<path opacity="0" fill="none" stroke="#000000" stroke-width="4" stroke-linecap="round" stroke-linejoin="round" stroke-miterlimit="10" d="
					M13,523.9604l1016.3119-330.2197" stroke-dasharray="1080,1080" stroke-dashoffset="1080">
						<animate values="-1080; 0" attributeName="stroke-dashoffset" begin="1.9s" dur="1s" fill="freeze" calcMode="spline" keySplines="0.8 0 0.2 1">
					  </animate>
						<animate values="1; 0.12" attributeName="opacity" begin="1.9s" dur="1s" fill="freeze">
					  </animate>
				  </path>

					<path opacity="0" fill="none" stroke="#000000" stroke-width="4" stroke-linecap="round" stroke-linejoin="round" stroke-miterlimit="10" d="
					M13,756.0103l1024-332.7178" stroke-dasharray="1080,1080" stroke-dashoffset="1080">
						<animate values="-1080; 0" attributeName="stroke-dashoffset" begin="2.0s" dur="1s" fill="freeze" calcMode="spline" keySplines="0.8 0 0.2 1">
					  </animate>
						<animate values="1; 0.12" attributeName="opacity" begin="2.0s" dur="1s" fill="freeze">
					  </animate>
				  </path>

					<path opacity="0" fill="none" stroke="#000000" stroke-width="4" stroke-linecap="round" stroke-linejoin="round" stroke-miterlimit="10" d="
					M13,726.4438L1037,393.726" stroke-dasharray="1080,1080" stroke-dashoffset="1080">
						<animate values="-1080; 0" attributeName="stroke-dashoffset" begin="2.1s" dur="1s" fill="freeze" calcMode="spline" keySplines="0.8 0 0.2 1">
					  </animate>
						<animate values="1; 0.12" attributeName="opacity" begin="2.1s" dur="1s" fill="freeze">
					  </animate>
				  </path>

					<path opacity="0" fill="none" stroke="#000000" stroke-width="4" stroke-linecap="round" stroke-linejoin="round" stroke-miterlimit="10" d="
					M13,627.4108l1024-332.7177" stroke-dasharray="1080,1080" stroke-dashoffset="1080">
						<animate values="-1080; 0" attributeName="stroke-dashoffset" begin="2.2s" dur="1s" fill="freeze" calcMode="spline" keySplines="0.8 0 0.2 1">
					  </animate>
						<animate values="1; 0.12" attributeName="opacity" begin="2.2s" dur="1s" fill="freeze">
					  </animate>
				  </path>

					<path opacity="0" fill="none" stroke="#000000" stroke-width="4" stroke-linecap="round" stroke-linejoin="round" stroke-miterlimit="10" d="
					M38.0398,909.7175L1037,585.1356" stroke-dasharray="1080,1080" stroke-dashoffset="1080">
						<animate values="-1080; 0" attributeName="stroke-dashoffset" begin="2.3s" dur="1s" fill="freeze" calcMode="spline" keySplines="0.8 0 0.2 1">
					  </animate>
						<animate values="1; 0.12" attributeName="opacity" begin="2.3s" dur="1s" fill="freeze">
					  </animate>
				  </path>
			</g>
			<g id="xian22">



					<path opacity="0" fill="none" stroke="#000000" stroke-width="4" stroke-linecap="round" stroke-linejoin="round" stroke-miterlimit="10" d="
					M88.0227,977.474L401.2253,13.5354" stroke-dasharray="1080,1080" stroke-dashoffset="1080">
						<animate values="-1080; 0" attributeName="stroke-dashoffset" begin="0.8s" dur="1s" fill="freeze" calcMode="spline" keySplines="0.8 0 0.2 1">
					  </animate>
						<animate values="1; 0.12" attributeName="opacity" begin="0.8s" dur="1s" fill="freeze">
					  </animate>
				  </path>

					<path opacity="0" fill="none" stroke="#000000" stroke-width="4" stroke-linecap="round" stroke-linejoin="round" stroke-miterlimit="10" d="
					M164.6045,1021.8365L492.2214,13.5354" stroke-dasharray="1080,1080" stroke-dashoffset="1080">
						<animate values="-1080; 0" attributeName="stroke-dashoffset" begin="0.9s" dur="1s" fill="freeze" calcMode="spline" keySplines="0.8 0 0.2 1">
					  </animate>
						<animate values="1; 0.12" attributeName="opacity" begin="0.9s" dur="1s" fill="freeze">
					  </animate>
				  </path>

					<path opacity="0" fill="none" stroke="#000000" stroke-width="4" stroke-linecap="round" stroke-linejoin="round" stroke-miterlimit="10" d="
					M478.0654,1037L810.1374,14.9874" stroke-dasharray="1080,1080" stroke-dashoffset="1080">
						<animate values="-1080; 0" attributeName="stroke-dashoffset" begin="1.0s" dur="1s" fill="freeze" calcMode="spline" keySplines="0.8 0 0.2 1">
					  </animate>
						<animate values="1; 0.12" attributeName="opacity" begin="1.0s" dur="1s" fill="freeze">
					  </animate>
				  </path>

					<path opacity="0" fill="none" stroke="#000000" stroke-width="4" stroke-linecap="round" stroke-linejoin="round" stroke-miterlimit="10" d="
					M387.0692,1037L719.613,13.5354" stroke-dasharray="1080,1080" stroke-dashoffset="1080">
						<animate values="-1080; 0" attributeName="stroke-dashoffset" begin="1.1s" dur="1s" fill="freeze" calcMode="spline" keySplines="0.8 0 0.2 1">
					  </animate>
						<animate values="1; 0.12" attributeName="opacity" begin="1.1s" dur="1s" fill="freeze">
					  </animate>
				  </path>

					<path opacity="0" fill="none" stroke="#000000" stroke-width="4" stroke-linecap="round" stroke-linejoin="round" stroke-miterlimit="10" d="
					M657.4726,1037L968.771,78.9221" stroke-dasharray="1080,1080" stroke-dashoffset="1080">
						<animate values="-1080; 0" attributeName="stroke-dashoffset" begin="1.2s" dur="1s" fill="freeze" calcMode="spline" keySplines="0.8 0 0.2 1">
					  </animate>
						<animate values="1; 0.12" attributeName="opacity" begin="1.2s" dur="1s" fill="freeze">
					  </animate>
				  </path>
			</g>
			<g id="xian11">

					<path opacity="0" fill="none" stroke="#000000" stroke-width="4" stroke-linecap="round" stroke-linejoin="round" stroke-miterlimit="10" d="
					M374.0161,1037l0.0876-1023.4646" stroke-dasharray="1024,1024" stroke-dashoffset="1024">
						<animate values="-1024; 0" attributeName="stroke-dashoffset" begin="3.1s" dur="1s" fill="freeze" calcMode="spline" keySplines="0.8 0 0.2 1">
					  </animate>
						<animate values="1; 0.12" attributeName="opacity" begin="3.1s" dur="1s" fill="freeze">
					  </animate>
				  </path>

					<path opacity="0" fill="none" stroke="#000000" stroke-width="4" stroke-linecap="round" stroke-linejoin="round" stroke-miterlimit="10" d="
					M328.6057,1037V13" stroke-dasharray="1024,1024" stroke-dashoffset="1024">
						<animate values="-1024; 0" attributeName="stroke-dashoffset" begin="3.2s" dur="1s" fill="freeze" calcMode="spline" keySplines="0.8 0 0.2 1">
					  </animate>
						<animate values="1; 0.12" attributeName="opacity" begin="3.2s" dur="1s" fill="freeze">
					  </animate>
				  </path>

					<path opacity="0" fill="none" stroke="#000000" stroke-width="4" stroke-linecap="round" stroke-linejoin="round" stroke-miterlimit="10" d="
					M692.4915,1037V13.5354" stroke-dasharray="1024,1024" stroke-dashoffset="1024">
						<animate values="-1024; 0" attributeName="stroke-dashoffset" begin="3.3s" dur="1s" fill="freeze" calcMode="spline" keySplines="0.8 0 0.2 1">
					  </animate>
						<animate values="1; 0.12" attributeName="opacity" begin="3.3s" dur="1s" fill="freeze">
					  </animate>
				  </path>

					<path opacity="0" fill="none" stroke="#000000" stroke-width="4" stroke-linecap="round" stroke-linejoin="round" stroke-miterlimit="10" d="
					M737.9896,1037V13.5354" stroke-dasharray="1024,1024" stroke-dashoffset="1024">
						<animate values="-1024; 0" attributeName="stroke-dashoffset" begin="3.4s" dur="1s" fill="freeze" calcMode="spline" keySplines="0.8 0 0.2 1">
					  </animate>
						<animate values="1; 0.12" attributeName="opacity" begin="3.4s" dur="1s" fill="freeze">
					  </animate>
				  </path>

					<path opacity="0" fill="none" stroke="#000000" stroke-width="4" stroke-linecap="round" stroke-linejoin="round" stroke-miterlimit="10" d="
					M578.7957,1037V13" stroke-dasharray="1024,1024" stroke-dashoffset="1024">
						<animate values="-1024; 0" attributeName="stroke-dashoffset" begin="3.5s" dur="1s" fill="freeze" calcMode="spline" keySplines="0.8 0 0.2 1">
					  </animate>
						<animate values="1; 0.12" attributeName="opacity" begin="3.5s" dur="1s" fill="freeze">
					  </animate>
				  </path>

					<path opacity="0" fill="none" stroke="#000000" stroke-width="4" stroke-linecap="round" stroke-linejoin="round" stroke-miterlimit="10" d="
					M827.6932,1033.4624V16.5363" stroke-dasharray="1024,1024" stroke-dashoffset="1024">
						<animate values="-1024; 0" attributeName="stroke-dashoffset" begin="3.6s" dur="1s" fill="freeze" calcMode="spline" keySplines="0.8 0 0.2 1">
					  </animate>
						<animate values="1; 0.12" attributeName="opacity" begin="3.6s" dur="1s" fill="freeze">
					  </animate>
				  </path>

					<line opacity="0" fill="none" stroke="#000000" stroke-width="4" stroke-linecap="round" stroke-linejoin="round" stroke-miterlimit="10" x1="533.2981" y1="13" x2="533.2981" y2="1037" stroke-dasharray="1024,1024" stroke-dashoffset="1024">
						<animate values="1024; 0" attributeName="stroke-dashoffset" begin="3.7s" dur="1s" fill="freeze" calcMode="spline" keySplines="0.8 0 0.2 1">
					  </animate>
						<animate values="1; 0.12" attributeName="opacity" begin="3.7s" dur="1s" fill="freeze">
					  </animate>
				  </line>
			</g>
			<g id="yuan">

					<path id="xiaoyuan3" fill="none" stroke="#000000" stroke-width="4" stroke-linecap="round" stroke-linejoin="round" stroke-miterlimit="10" d="
					M785.8291,391.8475c0,26.4211-21.4185,47.8395-47.8395,47.8395s-47.8395-21.4185-47.8395-47.8395
					c0-26.421,21.4185-47.8395,47.8395-47.8395S785.8291,365.4265,785.8291,391.8475z" stroke-dasharray="315,315" stroke-dashoffset="315">
						<animate values="-315; 0" attributeName="stroke-dashoffset" begin="2.5s" dur="1s" fill="freeze" calcMode="spline" keySplines="0.8 0 0.2 1">
					  </animate>
						<animate values="1; 0.12" attributeName="opacity" begin="2.5s" dur="1s" fill="freeze">
					  </animate>
				  </path>

					<path id="dayuan3" fill="none" stroke="#000000" stroke-width="4" stroke-linecap="round" stroke-linejoin="round" stroke-miterlimit="10" d="
					M788.1705,406.6307c0,52.842-42.837,95.679-95.679,95.679s-95.679-42.837-95.679-95.679s42.837-95.679,95.679-95.679
					S788.1705,353.7886,788.1705,406.6307z" stroke-dasharray="630,630" stroke-dashoffset="630">
						<animate values="-630; 0" attributeName="stroke-dashoffset" begin="2.4s" dur="1s" fill="freeze" calcMode="spline" keySplines="0.8 0 0.2 1">
					  </animate>
						<animate values="1; 0.12" attributeName="opacity" begin="2.4s" dur="1s" fill="freeze">
					  </animate>
				  </path>

					<path id="xiaoyuan2" fill="none" stroke="#000000" stroke-width="4" stroke-linecap="round" stroke-linejoin="round" stroke-miterlimit="10" d="
					M626.6352,572.1721c0,26.421-21.4185,47.8395-47.8395,47.8395s-47.8395-21.4185-47.8395-47.8395
					c0-26.4211,21.4185-47.8395,47.8395-47.8395S626.6352,545.751,626.6352,572.1721z" stroke-dasharray="315,315" stroke-dashoffset="315">
						<animate values="-315; 0" attributeName="stroke-dashoffset" begin="2.3s" dur="1s" fill="freeze" calcMode="spline" keySplines="0.8 0 0.2 1">
					  </animate>
						<animate values="1; 0.12" attributeName="opacity" begin="2.3s" dur="1s" fill="freeze">
					  </animate>
				  </path>

					<path id="dayuan2" fill="none" stroke="#000000" stroke-width="4" stroke-linecap="round" stroke-linejoin="round" stroke-miterlimit="10" d="
					M628.9767,557.3889c0,52.8421-42.837,95.679-95.6791,95.679s-95.679-42.8369-95.679-95.679
					c0-52.842,42.8369-95.679,95.679-95.679S628.9767,504.5468,628.9767,557.3889z" stroke-dasharray="630,630" stroke-dashoffset="630">
						<animate values="-630; 0" attributeName="stroke-dashoffset" begin="2.2s" dur="1s" fill="freeze" calcMode="spline" keySplines="0.8 0 0.2 1">
					  </animate>
						<animate values="1; 0.12" attributeName="opacity" begin="2.2s" dur="1s" fill="freeze">
					  </animate>
				  </path>

					<path id="xiaoyuan1" fill="none" stroke="#000000" stroke-width="4" stroke-linecap="round" stroke-linejoin="round" stroke-miterlimit="10" d="
					M376.4452,391.8475c0,26.4211-21.4185,47.8395-47.8395,47.8395s-47.8395-21.4185-47.8395-47.8395
					c0-26.421,21.4185-47.8395,47.8395-47.8395S376.4452,365.4265,376.4452,391.8475z" stroke-dasharray="315,315" stroke-dashoffset="315">
						<animate values="-315; 0" attributeName="stroke-dashoffset" begin="2.1s" dur="1s" fill="freeze" calcMode="spline" keySplines="0.8 0 0.2 1">
					  </animate>
						<animate values="1; 0.12" attributeName="opacity" begin="2.1s" dur="1s" fill="freeze">
					  </animate>
				  </path>

					<path id="dayuan1" fill="none" stroke="#000000" stroke-width="4" stroke-linecap="round" stroke-linejoin="round" stroke-miterlimit="10" d="
					M469.7828,406.6307c0,52.842-42.837,95.679-95.679,95.679s-95.679-42.837-95.679-95.679s42.837-95.679,95.679-95.679
					S469.7828,353.7886,469.7828,406.6307z" stroke-dasharray="630,630" stroke-dashoffset="630">
						<animate values="-630; 0" attributeName="stroke-dashoffset" begin="2.0s" dur="1s" fill="freeze" calcMode="spline" keySplines="0.8 0 0.2 1">
					  </animate>
						<animate values="1; 0.12" attributeName="opacity" begin="2.0s" dur="1s" fill="freeze">
					  </animate>
				  </path>

					<path id="yuandian" fill="none" stroke="#000000" stroke-width="4" stroke-linecap="round" stroke-linejoin="round" stroke-miterlimit="10" d="
					M870.9644,653.1436c0,23.8981-19.3732,43.2712-43.2712,43.2712c-23.898,0-43.2712-19.3732-43.2712-43.2712
					c0-23.898,19.3732-43.2712,43.2712-43.2712C851.5912,609.8723,870.9644,629.2455,870.9644,653.1436z" stroke-dasharray="300,300" stroke-dashoffset="300">
						<animate values="-300; 0" attributeName="stroke-dashoffset" begin="2.6s" dur="1s" fill="freeze" calcMode="spline" keySplines="0.8 0 0.2 1">
					  </animate>
						<animate values="1; 0.12" attributeName="opacity" begin="2.6s" dur="1s" fill="freeze">
					  </animate>
				  </path>
			</g>
		</g>
		<g id="mlogo" opacity="1">
			<animate values="1; 0" attributeName="opacity" begin="4.8s" dur="1s" fill="freeze">
			</animate>

				<path id="m2" fill="none" stroke="#000000" stroke-width="4" stroke-linecap="round" stroke-linejoin="round" stroke-miterlimit="10" d="
				M465.0999,377.0642c-12.809-39.4219-49.5455-66.1125-90.9962-66.1125s-78.1872,26.6906-90.9962,66.1125
				c6.4045-19.7109,24.7727-33.0563,45.4981-33.0563c20.7253,0,39.0936,13.3453,45.4981,33.0563l68.1977,209.8911
				c12.809,39.4219,49.5455,66.1125,90.9961,66.1125s78.1872-26.6907,90.9962-66.1125
				c-6.4045,19.7109-24.7728,33.0563-45.498,33.0563c-20.7253,0-39.0936-13.3453-45.4981-33.0563L465.0999,377.0642z" stroke-dasharray="1500,1500" stroke-dashoffset="1500">
					<animate values="-1500; 0" attributeName="stroke-dashoffset" begin="2.2s" dur="2.5s" fill="freeze" calcMode="spline" keySplines="0.8 0 0.2 1">
					</animate>
				</path>

				<path id="m1" fill="none" stroke="#000000" stroke-width="4" stroke-linecap="round" stroke-linejoin="round" stroke-miterlimit="10" d="
				M374.1041,377.0642c-6.4045-19.7109-24.7727-33.0563-45.4981-33.0563c-20.7253,0-39.0936,13.3453-45.498,33.0563
				L179.3443,696.4148h90.9961L374.1041,377.0642z" stroke-dasharray="1500,1500" stroke-dashoffset="1500">
					<animate values="-1500; 0" attributeName="stroke-dashoffset" begin="2.0s" dur="2.5s" fill="freeze" calcMode="spline" keySplines="0.8 0 0.2 1">
					</animate>
				</path>

				<path id="m4" fill="none" stroke="#000000" stroke-width="4" stroke-linecap="round" stroke-linejoin="round" stroke-miterlimit="10" d="
				M827.6932,513.1149L786.5398,639.772c-5.7929,17.8287,0.5532,37.3599,15.7192,48.3787c15.1661,11.0187,35.7024,11.0187,50.8684,0
				c15.166-11.0188,21.5121-30.55,15.7192-48.3787L827.6932,513.1149z" stroke-dasharray="1500,1500" stroke-dashoffset="1500">
					<animate values="-1500; 0" attributeName="stroke-dashoffset" begin="2.6s" dur="2.5s" fill="freeze" calcMode="spline" keySplines="0.8 0 0.2 1">
					</animate>
				</path>

				<path id="m3" fill="none" stroke="#000000" stroke-width="4" stroke-linecap="round" stroke-linejoin="round" stroke-miterlimit="10" d="
				M783.4877,377.0642c-12.809-39.4219-49.5455-66.1125-90.9962-66.1125c-41.4506,0-78.1872,26.6906-90.9962,66.1125
				l-68.1978,209.8911c6.4045,19.7109,24.7728,33.0563,45.4981,33.0563c20.7253,0,39.0936-13.3453,45.498-33.0563l68.1978-209.8911
				c6.4045-19.7109,24.7728-33.0563,45.498-33.0563C758.7149,344.008,777.0832,357.3533,783.4877,377.0642" stroke-dasharray="1500,1500" stroke-dashoffset="1500">
					<animate values="-1500; 0" attributeName="stroke-dashoffset" begin="2.4s" dur="2.5s" fill="freeze" calcMode="spline" keySplines="0.8 0 0.2 1">
					</animate>
				</path>
		</g>
	</g>
</g>
<g id="biankuang" fill="none" stroke-dasharray="3700,3700" stroke-dashoffset="3700" stroke-width="4">
	<animate
		values="3700; 0"
		attributeName="stroke-dashoffset"
		begin="0.5s"
		dur="1.5s"
		fill="freeze"
		calcMode="spline"
		keySplines="0.8 0 0.2 1"
		/>
	<path fill-rule="evenodd" clip-rule="evenodd" stroke="#000000" stroke-miterlimit="10" d="
		M744.716,13C846.35,13,883.204,23.582,920.36,43.454c37.156,19.87,66.316,49.03,86.186,86.186
		c19.87,37.154,30.454,74.01,30.454,175.644v439.434c0,101.632-10.584,138.486-30.454,175.642s-49.03,66.314-86.186,86.186
		c-37.156,19.87-74.01,30.454-175.644,30.454H305.282c-101.632,0-138.488-10.584-175.644-30.454
		c-37.154-19.872-66.314-49.03-86.186-86.186C23.582,883.204,13,846.35,13,744.718V305.284c0-101.634,10.582-138.49,30.452-175.644
		c19.872-37.156,49.032-66.316,86.186-86.186C166.794,23.582,203.65,13,305.282,13h228.0161H744.716z"/>
</g>
</svg>
