<?xml version="1.0" encoding="UTF-8"?>
<svg width="346px" height="194px" viewBox="0 0 346 194" version="1.1" xmlns="http://www.w3.org/2000/svg" xmlns:xlink="http://www.w3.org/1999/xlink">
    <defs>
        <linearGradient x1="50%" y1="0%" x2="50%" y2="98.7806166%" id="linearGradient-1">
            <stop stop-color="#7EC5FF" offset="0%"></stop>
            <stop stop-color="#1478CC" offset="100%"></stop>
        </linearGradient>
        <linearGradient x1="50%" y1="0%" x2="50%" y2="98.9178632%" id="linearGradient-2">
            <stop stop-color="#2373b4" offset="0%"></stop>
            <stop stop-color="#0e4f84" offset="100%"></stop>
        </linearGradient>
        <linearGradient x1="50%" y1="0%" x2="50%" y2="100%" id="linearGradient-3">
            <stop stop-color="#7EC5FF" offset="0%"></stop>
            <stop stop-color="#1478CC" offset="100%"></stop>
        </linearGradient>
        <linearGradient x1="50%" y1="0%" x2="50%" y2="100%" id="linearGradient-4">
            <stop stop-color="#2373b4" offset="0%"></stop>
            <stop stop-color="#0e4f84" offset="100%"></stop>
        </linearGradient>
    </defs>
    <g id="页面-1" stroke="none" stroke-width="1" fill="none" fill-rule="evenodd">
        <g id="Logo-2" transform="translate(-127.000000, -193.000000)">
            <rect id="矩形" x="0.0003" y="0" width="599.9997" height="600"></rect>
            <g id="编组备份" transform="translate(44.000000, 44.000000)">
                <path d="M365.858,0 C416.675,0 435.102,5.291 453.68,15.227 C472.258,25.162 486.838,39.742 496.773,58.32 C506.708,76.897 512,95.325 512,146.142 L512,365.859 C512,416.675 506.708,435.102 496.773,453.68 C486.838,472.258 472.258,486.837 453.68,496.773 C435.102,506.708 416.675,512 365.858,512 L146.141,512 C95.325,512 76.897,506.708 58.319,496.773 C39.742,486.837 25.162,472.258 15.226,453.68 C5.291,435.102 0,416.675 0,365.859 L0,146.142 C0,95.325 5.291,76.897 15.226,58.32 C25.162,39.742 39.742,25.162 58.319,15.227 C76.897,5.291 95.325,0 146.141,0 L365.858,0 Z" id="Fill-1" ></path>
                <g id="编组-2" transform="translate(83.500000, 149.500000)">
                    <path d="M97.0429363,33.2328226 C93.8517735,23.3994764 84.6994049,16.7418003 74.3725769,16.7418003 C64.0457489,16.7418003 54.8933804,23.3994802 51.7022175,33.2328226 L0,192.549528 L45.3407226,192.549528 L97.0429363,33.2328226 Z" id="路径" fill="url(#linearGradient-1)"></path>
                    <path d="M176.364586,137.94268 C179.555749,147.77603 188.708118,154.433703 199.034946,154.433703 C209.361774,154.433703 218.514142,147.77603 221.705305,137.94268 C215.322979,157.609357 197.018235,170.924729 176.364586,170.924729 C155.710938,170.924729 137.406197,157.609357 131.023871,137.94268 L97.0429402,33.2328226 C93.8517735,23.3994764 84.6994049,16.7418003 74.3725769,16.7418003 C64.0457489,16.7418003 54.8933804,23.3994802 51.7022175,33.2328226 C58.0845432,13.5661264 76.3892879,0.25077413 97.0429363,0.25077413 C117.696585,0.25077413 136.001326,13.5661264 142.383663,33.2328226 C159.37415,85.5877431 159.374129,85.5877498 176.364586,137.94268 Z" id="路径" fill="url(#linearGradient-2)"></path>
                    <path d="M221.705305,137.94268 C218.514142,147.77603 209.361774,154.433703 199.034946,154.433703 C188.708118,154.433703 179.555749,147.77603 176.364586,137.94268 C194.763672,81.2472392 206.090655,46.3439534 210.345536,33.2328226 C216.727858,13.5661264 235.032603,0.25077413 255.686251,0.25077413 C276.3399,0.25077413 294.644641,13.5661264 301.026966,33.2328226 C297.835804,23.3994764 288.683435,16.7418003 278.356607,16.7418003 C268.029779,16.7418003 258.87741,23.3994802 255.686248,33.2328226 C238.695778,85.5877519 238.695763,85.587747 221.705305,137.94268 Z" id="路径" fill="url(#linearGradient-3)"></path>
                    <path d="M302.547756,164.291731 C299.661311,173.186075 302.823384,182.929748 310.380161,188.426766 C317.936962,193.923783 328.169617,193.923783 335.726394,188.426766 C343.283172,182.929748 346.445245,173.186075 343.5588,164.291731 L323.053291,101.105369 C311.307231,137.300047 304.472053,158.362168 302.547756,164.291731 Z" id="路径" fill="url(#linearGradient-4)"></path>
                </g>
            </g>
        </g>
    </g>
</svg>