<?xml version="1.0" standalone="no"?><!DOCTYPE svg PUBLIC "-//W3C//DTD SVG 1.1//EN" "http://www.w3.org/Graphics/SVG/1.1/DTD/svg11.dtd"><svg t="1553631686352" class="icon" style="" viewBox="0 0 1024 1024" version="1.1" xmlns="http://www.w3.org/2000/svg" p-id="1741" xmlns:xlink="http://www.w3.org/1999/xlink" width="24" height="24"><defs><style type="text/css"></style></defs><path d="M377.558543 489.629503l67.034742 66.925249-134.025483 133.787052-67.014276-66.838268L377.558543 489.629503zM556.630988 690.733731l223.376487 0 0-89.436962L556.630988 601.296769 556.630988 690.733731zM958.70846 243.936755l0 536.105001c0 98.730629-79.927377 178.744987-178.700985 178.744987L243.903497 958.786743c-98.599645 0-178.61298-80.013335-178.61298-178.744987L65.290517 243.936755c0-98.730629 80.013335-178.722474 178.61298-178.722474l536.105001 0C878.781082 65.213257 958.70846 145.205103 958.70846 243.936755zM869.44546 288.612257c0-74.015737-60.119239-133.981481-134.113487-133.981481L288.578999 154.630776c-73.994248 0-134.027529 59.965743-134.027529 133.981481l0 446.775486c0 74.015737 60.033281 133.961014 134.027529 133.961014l446.752973 0c73.994248 0 134.113487-59.945277 134.113487-133.961014L869.44546 288.612257zM243.553527 355.842451l134.005017 133.787052 0.021489-0.021489 67.01223 66.946738 67.100234-66.946738L310.567803 289.00623 243.553527 355.842451z" p-id="1742"></path></svg>