<?xml version="1.0" standalone="no"?><!DOCTYPE svg PUBLIC "-//W3C//DTD SVG 1.1//EN" "http://www.w3.org/Graphics/SVG/1.1/DTD/svg11.dtd"><svg t="1553631920223" class="icon" style="" viewBox="0 0 1024 1024" version="1.1" xmlns="http://www.w3.org/2000/svg" p-id="5924" xmlns:xlink="http://www.w3.org/1999/xlink" width="24" height="24"><defs><style type="text/css"></style></defs><path d="M618.999966 744.283344c-90.242304 0-180.485631 0.002047-270.727934-0.001023-38.940894-0.001023-69.261457-30.29805-69.266573-69.360717-0.025583-179.403996-0.024559-358.806969-0.001023-538.210965 0.005117-39.254026 30.371728-69.474304 69.662593-69.474304 180.176592 0 360.353185 0 540.529777 0 39.529295 0 69.726038 30.18037 69.735248 69.865207 0.032746 132.428102 0.01228 264.856203 0.01228 397.284305 0 46.821375 0.034792 93.64275-0.01228 140.463102-0.034792 34.376948-23.431665 62.461587-57.207933 68.62803-3.767813 0.687662-7.68503 0.771573-11.532661 0.773619C799.794635 744.29153 709.396789 744.283344 618.999966 744.283344zM618.612133 688.652326c81.435731 0 162.872484 0.026606 244.308215-0.051165 6.468318-0.00614 12.975523-0.418532 19.394722-1.207501 11.55108-1.420349 17.283642-6.677073 19.026332-18.09103 1.182942-7.747451 1.711991-15.668865 1.716084-23.512507 0.094144-160.091138 0.081864-320.181253 0.029676-480.272391-0.002047-6.473435-0.408299-12.964266-0.976234-19.416212-1.222851-13.891382-6.364965-19.641339-20.009729-21.906939-5.759167-0.956791-11.67797-1.331321-17.524119-1.334391-163.7996-0.068562-327.5992-0.073678-491.3988 0.016373-6.451946 0.004093-12.96529 0.674359-19.340487 1.711991-10.408047 1.694595-15.688307 6.780427-17.206894 17.185404-1.221828 8.370645-1.864464 16.901948-1.86958 25.361621-0.105401 159.164023-0.088004 318.327022-0.038886 477.491045 0.002047 6.475482 0.37146 12.967336 0.917906 19.421328 1.342578 15.851013 6.924713 21.745257 22.49841 23.605627 5.655813 0.675382 11.391445 0.952698 17.090237 0.956791C456.357725 688.671769 537.484418 688.652326 618.612133 688.652326z" p-id="5925"></path><path d="M403.609361 959.39561c-90.235141 0-180.470281 0.00307-270.705422-0.001023-38.367843-0.002047-68.984141-30.325679-68.99642-68.679196-0.057305-179.852204-0.056282-359.705432-0.001023-539.557636 0.011256-38.404682 30.614252-68.807109 68.914556-68.808132 22.095227-0.001023 44.190455-0.00921 66.285682 0.00307 16.349363 0.008186 28.29544 11.781324 28.266787 27.824719-0.027629 15.755846-12.016685 27.51875-28.009937 27.690666-18.062378 0.194428-36.123732 0.548492-54.18611 0.837064-0.462534 0.007163-0.927115 0.031722-1.387603 0.074701-15.44783 1.436722-21.714558 7.652284-23.223934 23.526833-0.627287 6.600325-0.951675 13.255908-0.953721 19.885909-0.051165 159.14765-0.065492 318.2953 0.032746 477.44295 0.005117 8.150634 0.62524 16.361643 1.746784 24.435529 1.608637 11.57564 7.505951 17.046235 19.22076 18.453281 6.117324 0.734734 12.308327 1.189082 18.466584 1.191128 163.16515 0.062422 326.3303 0.059352 489.49545 0.008186 5.54325-0.002047 11.116175-0.36532 16.624632-1.001817 14.737656-1.703805 20.933775-7.752568 21.738094-22.700001 0.86981-16.178471 0.88823-32.408107 1.044796-48.618301 0.167822-17.328667 12.418844-30.111808 28.706809-29.626761 16.60519 0.494257 28.117384 14.554484 27.478841 31.956829-0.696872 18.97926-0.227174 37.999452-0.347924 57.002248-0.185218 29.381168-18.374486 55.481615-45.913703 64.811098-7.028067 2.381234-14.777565 3.670599-22.200628 3.691065C585.006757 959.481567 494.308059 959.39561 403.609361 959.39561z" p-id="5926"></path><path d="M584.352865 437.935144c-2.501984 0-4.329609 0-6.15621 0-42.183751 0-84.367503 0.030699-126.551254-0.016373-15.861246-0.017396-29.66053-11.991102-31.568996-27.186176-2.133593-16.981766 7.563256-31.871895 23.64349-35.950793 3.094478-0.784876 6.40999-0.960885 9.624195-0.964978 41.565674-0.061398 83.131349-0.040932 124.697023-0.040932 1.960655 0 3.921309 0 6.311753 0 0-2.492774 0-4.324492 0-6.155187 0-41.720194-0.004093-83.440387 0.002047-125.160581 0.00307-19.178805 13.678534-33.356712 32.152281-33.358759 18.438954-0.00307 32.17991 14.213723 32.18912 33.378202 0.019443 41.720194 0.00614 83.440387 0.00614 125.160581 0 1.831718 0 3.663436 0 6.136767 2.403746 0 4.367471 0 6.331195 0 42.183751 0.001023 84.367503-0.050142 126.551254 0.028653 15.796778 0.029676 29.071106 11.55108 31.331589 26.838252 2.371 16.041348-6.883781 31.182186-22.11467 35.735899-3.345188 0.99977-6.969739 1.483794-10.468422 1.49198-41.874713 0.099261-83.749426 0.064468-125.624139 0.064468-1.816369 0-3.63376 0-6.006807 0 0 2.24718 0 4.047176 0 5.848195 0 42.029232 0.082888 84.058464-0.048095 126.087697-0.042979 13.773701-6.348592 24.232914-18.99768 29.798676-12.339026 5.429663-24.273846 3.668553-34.580586-5.28026-7.249101-6.294356-10.723226-14.551414-10.723226-24.206308 0.002047-42.183751 0.001023-84.36648 0.001023-126.550231C584.352865 441.951621 584.352865 440.270329 584.352865 437.935144z" p-id="5927"></path></svg>