<?xml version="1.0" standalone="no"?><!DOCTYPE svg PUBLIC "-//W3C//DTD SVG 1.1//EN" "http://www.w3.org/Graphics/SVG/1.1/DTD/svg11.dtd"><svg t="1553631894061" class="icon" style="" viewBox="0 0 1024 1024" version="1.1" xmlns="http://www.w3.org/2000/svg" p-id="5150" xmlns:xlink="http://www.w3.org/1999/xlink" width="24" height="24"><defs><style type="text/css"></style></defs><path d="M722.71872 594.944c6.42048 15.17568 9.71776 32.6144 9.71776 52.44928 0 51.87584-18.97472 93.98272-56.8832 126.33088-37.92896 32.33792-88.576 48.50688-151.94112 48.50688-73.8816 0-129.77152-15.34976-167.70048-46.04928-37.91872-30.69952-57.21088-76.9024-57.856-138.63936l85.68832 0c1.31072 36.44416 13.37344 63.52896 36.18816 81.26464 22.82496 17.72544 57.05728 26.59328 102.68672 26.59328 37.10976 0 66.56-7.38304 88.40192-22.15936s32.75776-35.28704 32.75776-61.56288c0-18.71872-7.0656-33.64864-21.16608-44.81024-9.74848-7.69024-26.22464-14.99136-49.08032-21.9136L722.71872 594.95424zM517.00736 491.52l-20.46976-5.1712c-40.3968-10.16832-66.67264-19.78368-78.7968-28.80512-12.16512-9.02144-18.2272-23.06048-18.2272-42.10688 0-23.9616 10.26048-42.35264 30.78144-55.16288s45.21984-19.2 74.12736-19.2c39.71072 0 70.17472 6.89152 91.35104 20.6848 21.16608 13.79328 32.4096 36.44416 33.73056 67.96288l85.69856 0c-1.95584-48.26112-19.93728-87.9104-53.93408-118.9376-33.97632-31.03744-82.82112-46.5408-146.52416-46.5408-59.7504 0-108.1856 15.104-145.28512 45.312-37.09952 30.208-55.64416 71.24992-55.64416 123.12576 0 22.46656 4.66944 42.0352 13.79328 58.85952L517.00736 491.54048zM817.48992 517.12l-537.6 0c-14.14144 0-25.6 11.45856-25.6 25.6s11.45856 25.6 25.6 25.6l537.6 0c14.14144 0 25.6-11.45856 25.6-25.6S831.63136 517.12 817.48992 517.12z" p-id="5151"></path></svg>