<?xml version="1.0" standalone="no"?><!DOCTYPE svg PUBLIC "-//W3C//DTD SVG 1.1//EN" "http://www.w3.org/Graphics/SVG/1.1/DTD/svg11.dtd"><svg t="1551904722354" class="icon" style="" viewBox="0 0 1024 1024" version="1.1" xmlns="http://www.w3.org/2000/svg" p-id="6070" xmlns:xlink="http://www.w3.org/1999/xlink" width="24" height="24"><defs><style type="text/css"></style></defs><path d="M465.981 1001.74a89.578 89.578 0 0 1-89.889-88.955l-0.356-63.666c-176.662 38.422-213.927-74.93-213.927-74.93-28.895-73.372-70.523-92.873-70.523-92.873-57.61-39.446 4.364-38.645 4.364-38.645 63.71 4.452 97.28 65.447 97.28 65.447 56.631 97.058 148.569 69.009 184.765 52.803 5.699-41.049 22.172-69.053 40.337-84.947-141.045-16.028-289.303-70.523-289.303-313.79 0-69.32 24.799-125.952 65.447-170.429-6.589-16.028-28.316-80.584 6.144-168.025 0 0 53.337-17.052 174.659 65.09a609.28 609.28 0 0 1 158.943-21.37c53.915 0.223 108.276 7.257 159.031 21.37C814.186 6.679 867.434 23.73 867.434 23.73c34.549 87.485 12.822 152.042 6.233 168.025 40.693 44.433 65.358 101.109 65.358 170.43 0 243.89-148.57 297.583-289.926 313.299 22.751 19.723 43.053 58.323 43.053 117.582 0 84.992-0.312 119.674-0.312 119.674a89.622 89.622 0 0 1-89.8 89H465.98z" fill="#d4237a" p-id="6071"></path></svg>