<?xml version="1.0" standalone="no"?><!DOCTYPE svg PUBLIC "-//W3C//DTD SVG 1.1//EN" "http://www.w3.org/Graphics/SVG/1.1/DTD/svg11.dtd"><svg t="1553860983783" class="icon" style="" viewBox="0 0 1024 1024" version="1.1" xmlns="http://www.w3.org/2000/svg" p-id="2033" xmlns:xlink="http://www.w3.org/1999/xlink" width="24" height="24"><defs><style type="text/css"></style></defs><path d="M324.3 537.1c-57.9 0-105-47.1-105-105s47.1-105 105-105 105 47.1 105 105-47.1 105-105 105z m0-168c-34.7 0-63 28.3-63 63s28.3 63 63 63 63-28.3 63-63-28.3-63-63-63z m235.8 532.4c-5.4 0-10.7-2.1-14.8-6.2L344.9 695c-10.2-10.2-26.9-10.2-37.1 0L163.1 839.7c-8.2 8.2-21.5 8.2-29.7 0s-8.2-21.5 0-29.7l144.7-144.7c26.6-26.6 69.9-26.6 96.5 0L575 865.7c8.2 8.2 8.2 21.5 0 29.7-4.1 4.1-9.5 6.1-14.9 6.1zM414 745.7c-5.4 0-10.7-2.1-14.8-6.2-8.2-8.2-8.2-21.5 0-29.7l248.3-248.3c31-31 81.5-31 112.4 0l144.3 144.3c8.2 8.2 8.2 21.5 0 29.7s-21.5 8.2-29.7 0L730.2 491.3c-14.6-14.6-38.4-14.6-53.1 0L428.9 739.5c-4.1 4.1-9.5 6.2-14.9 6.2zM806 911H218c-57.9 0-105-47.1-105-105V218c0-57.9 47.1-105 105-105h588c57.9 0 105 47.1 105 105v588c0 57.9-47.1 105-105 105zM218 155c-34.7 0-63 28.3-63 63v588c0 34.7 28.3 63 63 63h588c34.7 0 63-28.3 63-63V218c0-34.7-28.3-63-63-63H218z" p-id="2034"></path></svg>