<?xml version="1.0" standalone="no"?><!DOCTYPE svg PUBLIC "-//W3C//DTD SVG 1.1//EN" "http://www.w3.org/Graphics/SVG/1.1/DTD/svg11.dtd"><svg t="1553631850432" class="icon" style="" viewBox="0 0 1024 1024" version="1.1" xmlns="http://www.w3.org/2000/svg" p-id="4706" xmlns:xlink="http://www.w3.org/1999/xlink" width="24" height="24"><defs><style type="text/css"></style></defs><path d="M748.307692 242.215385V216.615385c0-21.661538-17.723077-39.384615-39.384615-39.384616H433.230769c-21.661538 0-39.384615 17.723077-39.384615 39.384616v39.384615c0 21.661538 17.723077 39.384615 39.384615 39.384615 33.476923 0 59.076923 31.507692 51.2 63.015385L413.538462 704.984615c-5.907692 25.6-27.569231 43.323077-51.2 43.323077H315.076923c-21.661538 0-39.384615 17.723077-39.384615 39.384616v39.384615c0 21.661538 17.723077 39.384615 39.384615 39.384615h275.692308c21.661538 0 39.384615-17.723077 39.384615-39.384615v-39.384615c0-21.661538-17.723077-39.384615-39.384615-39.384616-33.476923 0-59.076923-31.507692-51.2-63.015384L610.461538 338.707692c5.907692-25.6 27.569231-43.323077 51.2-43.323077h33.476924c29.538462 0 53.169231-23.630769 53.16923-53.16923z" p-id="4707"></path></svg>