<?xml version="1.0" standalone="no"?><!DOCTYPE svg PUBLIC "-//W3C//DTD SVG 1.1//EN" "http://www.w3.org/Graphics/SVG/1.1/DTD/svg11.dtd"><svg t="1551875576319" class="icon" style="" viewBox="0 0 1024 1024" version="1.1" xmlns="http://www.w3.org/2000/svg" p-id="3272" xmlns:xlink="http://www.w3.org/1999/xlink" width="24" height="24"><defs><style type="text/css"></style></defs><path d="M768 102.4v307.2c0 34.816-26.624 61.44-61.44 61.44h-389.12c-34.816 0-61.44-26.624-61.44-61.44v-307.2h-92.16c-34.816 0-61.44 26.624-61.44 61.44V870.4c0 34.816 26.624 61.44 61.44 61.44h706.56c34.816 0 61.44-26.624 61.44-61.44v-104.448c0-12.288 8.192-20.48 20.48-20.48s20.48 8.192 20.48 20.48v104.448c0 57.344-45.056 102.4-102.4 102.4H163.84c-57.344 0-102.4-45.056-102.4-102.4v-706.56c0-57.344 45.056-102.4 102.4-102.4h706.56c57.344 0 102.4 45.056 102.4 102.4v417.792c0 12.288-8.192 20.48-20.48 20.48s-20.48-8.192-20.48-20.48v-417.792c0-34.816-26.624-61.44-61.44-61.44h-102.4z m-471.04 0v307.2c0 10.24 8.192 20.48 20.48 20.48h389.12c10.24 0 20.48-8.192 20.48-20.48v-307.2h-430.08z m301.056 92.16c0-12.288 8.192-20.48 20.48-20.48s20.48 8.192 20.48 20.48v122.88c0 12.288-8.192 20.48-20.48 20.48s-20.48-8.192-20.48-20.48v-122.88z" p-id="3273" fill="#515151"></path></svg>