<?xml version="1.0" standalone="no"?><!DOCTYPE svg PUBLIC "-//W3C//DTD SVG 1.1//EN" "http://www.w3.org/Graphics/SVG/1.1/DTD/svg11.dtd"><svg t="1551876908206" class="icon" style="" viewBox="0 0 1024 1024" version="1.1" xmlns="http://www.w3.org/2000/svg" p-id="5291" xmlns:xlink="http://www.w3.org/1999/xlink" width="24" height="24"><defs><style type="text/css"></style></defs><path d="M876.572788 522.301623c-1.886977 12.375865-9.657964 30.331819-35.880185 45.48903-56.489572 32.697703-150.21828 83.990926-174.010149 96.958262-13.143345 24.431435-66.067718 122.221646-98.141204 178.503487-16.117073 28.124548-36.055171 34.041304-50.030463 34.041304-0.031722 0-0.031722 0-0.031722 0-14.613836 0-29.1806-6.460132-43.234687-19.218714-47.183626-42.643216-125.994576-117.105115-146.013515-136.083351-27.757181-4.732791-138.338718-23.743774-200.584388-35.752272-17.924231-3.533476-32.649608-14.07046-40.372499-29.084409-5.78782-11.256368-10.281157-30.05962 1.471514-55.658647 26.989701-59.047838 74.126254-157.557432 85.957721-182.196599-3.437286-27.117614-16.996093-135.060045-23.760147-198.905142-1.886977-17.460674 3.901867-35.096333 15.829524-48.351218 12.791327-14.278191 30.667463-21.48943 49.854455-19.426445 63.669088 6.332219 173.259042 19.426445 200.584388 22.705118 24.335245-11.879562 121.085776-58.936297 180.133613-86.34146 9.91379-4.573155 19.85828-6.92369 29.596062-6.92369 28.748764 0 52.172243 20.642133 58.328453 51.421136 12.599969 62.997799 30.93864 166.70272 35.639708 193.484689 18.851347 19.682271 91.953272 96.031147 135.060045 143.07151C872.72004 487.125473 879.307062 504.71406 876.572788 522.301623L876.572788 522.301623zM825.375755 499.085876C776.017604 445.314205 687.245791 352.977193 686.365748 352.017332c-2.942005-3.069919-4.956895-6.971785-5.676279-11.208273-0.207731-1.215688-22.193465-127.001509-36.551474-198.936865-0.799202-3.917216-4.285606-16.836457-16.196891-16.836457-3.453658 0-7.30743 1.006933-11.464099 2.942005-67.282383 31.179117-183.955662 88.180342-185.170327 88.771813-3.693112 1.790786-7.850805 2.558265-11.975752 2.01489-1.295506-0.224104-133.63765-16.165168-205.988468-23.424502-0.079818 0-0.207731 0-0.287549 0-7.30743 0-11.128455 2.89391-13.319353 5.40408-3.677762 4.124947-5.644557 9.91379-5.068436 15.110139 7.674796 72.623018 24.255427 202.934922 24.463158 204.325595 0.511653 4.109598-0.159636 8.266267-1.966795 11.960403-0.591471 1.215688-57.657164 120.04712-88.339977 187.201589-3.565199 7.754614-4.41352 14.214746-2.350534 18.131963 1.935072 3.725858 6.588045 5.820566 10.360975 6.53995 70.719668 13.718443 204.644867 36.519752 206.036563 36.727483 4.189416 0.671289 8.058536 2.686179 11.112082 5.580089 1.006933 0.87902 96.414887 91.281983 150.090367 139.889027 8.314363 7.563256 13.143345 8.106632 14.437827 8.106632 3.485381 0 8.314363-4.621251 12.727882-12.391215 36.343743-63.828724 100.011808-181.988868 100.636025-183.155437 1.983167-3.64604 5.004991-6.667863 8.650007-8.650007 1.134847-0.671289 114.418936-62.373583 178.6314-99.516528 8.698103-5.036713 14.278191-10.568706 14.94948-14.854313C834.681702 511.845481 831.49922 505.800811 825.375755 499.085876L825.375755 499.085876zM935.333076 935.670256c-4.157693 4.157693-9.689686 6.299473-15.141862 6.299473-5.548366 0-11.048637-2.142803-15.238053-6.299473l-171.915441-171.915441c-8.362458-8.394181-8.362458-21.98471 0-30.426987 8.394181-8.394181 21.98471-8.394181 30.379914 0l171.915441 171.915441C943.727257 913.684522 943.727257 927.275052 935.333076 935.670256L935.333076 935.670256z" p-id="5292" fill="#515151"></path></svg>